<svg id="Ebene_1" data-name="Ebene 1" xmlns="http://www.w3.org/2000/svg" viewBox="0 0 225.22 185"><defs><style>.cls-1{fill:#ea4f84;}.cls-2{fill:#e72f69;}.cls-3{fill:#c8175c;}</style></defs><title>logo_SVG</title><path class="cls-1" d="M67.74,208.56S-17.87,147.64,29.87,60.38c0,0,54.33-9.88,87.26,49.39C117.13,109.77,79.26,126.24,67.74,208.56Z" transform="translate(-15.39 -35.5)"/><path class="cls-2" d="M127.59,101.54s-26.35-46.1-52.69-46.1c0,0,74.09-57.62,121.84,23C196.74,78.49,150.64,80.14,127.59,101.54Z" transform="translate(-15.39 -35.5)"/><path class="cls-3" d="M84.78,209.18a159.48,159.48,0,0,0,33.82-11.37c-3.79-8.13-9.53-26.94,2.14-51.58a3.29,3.29,0,1,1,6,2.82c-10.57,22.32-5.38,39-2.16,45.93a180.9,180.9,0,0,0,17.4-9.92c-2.89-6.53-6.77-20.61,1.86-38.83a3.29,3.29,0,1,1,6,2.82c-7.07,14.92-4.5,26.5-2.24,32.25a176.73,176.73,0,0,0,15.16-11.89c-1.47-5.25-2.12-13.36,2.53-23.18a3.29,3.29,0,1,1,5.95,2.82,27.64,27.64,0,0,0-2.82,15.19,173.83,173.83,0,0,0,21.49-24.88,5.77,5.77,0,0,1,9.4,6.68A188.23,188.23,0,0,1,97.15,218.1c34.56,6.11,127.44,10.27,143.46-116.56C240.61,101.54,101,56.63,84.78,209.18Z" transform="translate(-15.39 -35.5)"/></svg>